#N canvas 72 237 1014 480 10;
#X declare -stdpath moonlib;
#X declare -stdpath zexy -stdlib zexy -lib zexy;
#X declare -lib Gem;
#X declare -path ATEM -path 3Dctl;
#X obj 41 11 declare -stdpath moonlib;
#X obj 41 31 declare -stdpath zexy -stdlib zexy -lib zexy;
#N canvas 915 82 450 300 Gem 0;
#X obj 151 55 gemhead;
#X obj 151 94 pix_image;
#X obj 151 129 pix_texture;
#X obj 151 232 rectangle 4 3;
#X msg 274 94 open metaluJ.jpg;
#X obj 151 204 translateXYZ;
#X floatatom 265 210 5 0 0 0 - - -, f 5;
#X obj 325 215 + 2.98;
#X obj 155 31 declare -lib Gem;
#N canvas 1297 466 450 300 gemwin 0;
#X obj 132 223 gemwin;
#X obj 67 89 outlet;
#X obj 67 10 inlet;
#X msg 67 70 set destroy;
#X msg 142 68 set create;
#X msg 198 112 destroy \, reset;
#X msg 195 199 perspec -0.01 0.01 -0.01 0.01 0.01 20;
#X msg 343 132 frame 25;
#X msg 132 93 dimen 640 480 \, view 0 0 3 \, create \, 1 \, frame 25
;
#X msg 342 168 frame 50;
#X msg 346 147 frame 30;
#X obj 67 41 route 1;
#X connect 2 0 11 0;
#X connect 3 0 1 0;
#X connect 4 0 1 0;
#X connect 5 0 0 0;
#X connect 6 0 0 0;
#X connect 7 0 0 0;
#X connect 8 0 0 0;
#X connect 9 0 0 0;
#X connect 10 0 0 0;
#X connect 11 0 3 0;
#X connect 11 0 8 0;
#X connect 11 0 6 0;
#X connect 11 1 4 0;
#X connect 11 1 5 0;
#X restore 39 79 pd gemwin;
#X obj 325 189 * -0.03;
#X floatatom 81 237 5 0 0 0 - - -, f 5;
#X obj 239 139 * 0.06;
#X obj 239 161 - 3;
#X msg 93 178 \$1 70;
#X obj 93 197 line;
#X msg 189 162 \$1 70;
#X obj 189 181 line;
#X msg 324 238 \$1 70;
#X obj 324 257 line;
#X obj 40 55 tgl 15 0 empty empty empty 17 7 0 10 -262144 -1 -1 0 1
;
#X obj 42 31 inlet;
#X obj 325 154 r 0-CURZ;
#X obj 239 118 r 0-CURY;
#X obj 93 109 r 0-CURX;
#X obj 93 130 * -0.08;
#X obj 93 155 + 4;
#X obj 316 47 sel 1;
#X connect 0 0 1 0;
#X connect 1 0 2 0;
#X connect 2 0 5 0;
#X connect 4 0 1 0;
#X connect 5 0 3 0;
#X connect 6 0 5 3;
#X connect 7 0 18 0;
#X connect 10 0 7 0;
#X connect 11 0 5 1;
#X connect 12 0 13 0;
#X connect 13 0 16 0;
#X connect 14 0 15 0;
#X connect 15 0 5 1;
#X connect 16 0 17 0;
#X connect 17 0 5 2;
#X connect 18 0 19 0;
#X connect 19 0 5 3;
#X connect 20 0 9 0;
#X connect 20 0 27 0;
#X connect 21 0 20 0;
#X connect 22 0 10 0;
#X connect 23 0 12 0;
#X connect 24 0 25 0;
#X connect 25 0 26 0;
#X connect 26 0 14 0;
#X connect 27 0 4 0;
#X restore 53 148 pd Gem;
#N canvas 1 88 1070 621 tests 0;
#X obj 111 403 s GCODE;
#X floatatom 108 314 5 0 0 0 - - -, f 5;
#X msg 102 260 0;
#X msg 181 374 G1 X0;
#X msg 182 349 G1 X100.0;
#X msg 244 312 G1 F\$1;
#X msg 266 218 200;
#X msg 339 215 2000;
#X msg 238 217 20;
#X msg 50 364 M111;
#X msg 138 259 10;
#X msg 309 366 G1 Z\$1;
#X msg 309 330 10;
#X msg 279 332 0;
#X msg 183 485 M204 P\$1 T\$1;
#X msg 315 462 M201 X\$1 Y\$1;
#X msg 313 393 1000;
#X msg 349 393 100;
#X msg 375 393 10;
#X floatatom 321 421 5 0 0 0 - - -, f 5;
#X msg 165 258 50;
#X msg 193 259 100;
#X msg 403 392 2;
#X msg 434 390 1;
#X floatatom 244 273 5 0 0 0 - - -, f 5;
#X msg 295 216 500;
#X msg 176 428 1000;
#X msg 212 428 100;
#X msg 238 428 10;
#X floatatom 184 456 5 0 0 0 - - -, f 5;
#X msg 266 427 2;
#X msg 297 425 1;
#X obj 336 24 metro 100;
#X obj 424 33 hsl 128 15 0 100 0 0 empty empty empty -2 -8 0 10 -262144
-1 -1 0 1;
#X obj 370 47 r COUNT;
#X obj 336 3 tgl 15 0 empty empty empty 17 7 0 10 -262144 -1 -1 0 1
;
#X obj 406 120 f;
#X obj 406 158 t f f f;
#X obj 427 191 -;
#X obj 406 242 spigot;
#X obj 427 215 != 0;
#X obj 337 94 spigot;
#X obj 370 71 < 15;
#X floatatom 527 286 5 0 0 0 - - -, f 5;
#X obj 470 198 abs, f 4;
#X msg 461 72 40;
#X msg 460 102 50;
#X obj 470 224 * 100;
#X obj 553 136 r COUNT;
#X obj 470 251 +;
#X obj 553 162 * 100;
#X obj 506 373 print;
#X obj 470 288 max 50;
#X msg 111 360 G1 Z\$1;
#X obj 499 343 change;
#N canvas 1397 200 623 531 drive 0;
#X obj 192 26 inlet X;
#X obj 65 34 metro 100;
#X obj 98 57 r COUNT;
#X obj 65 13 tgl 15 0 empty empty empty 17 7 0 10 -262144 -1 -1 0 1
;
#X obj 104 242 t f f f;
#X obj 125 275 -;
#X obj 104 419 spigot;
#X obj 65 104 spigot;
#X obj 98 81 < 15;
#X obj 125 299 abs;
#X obj 199 240 t f f f;
#X obj 220 273 -;
#X obj 220 297 abs;
#X obj 286 240 t f f f;
#X obj 307 273 -;
#X obj 307 297 abs;
#X obj 220 322 max;
#X obj 205 344 max;
#X obj 205 367 != 0;
#X obj 104 393 pack f f f;
#X obj 309 370 * 100;
#X obj 349 371 r COUNT;
#X obj 309 397 +;
#X msg 309 456 G1 F\$1;
#X msg 104 441 G1 X\$1 Y\$2 Z\$3;
#X obj 223 500 s GCODE;
#X obj 250 25 inlet Y;
#X obj 306 25 inlet Z;
#X obj 99 7 loadbang;
#X obj 309 434 max 5;
#X obj 349 397 * 10;
#X obj 192 138 pack f f f;
#X obj 104 210 unpack f f f;
#X obj 104 185 list;
#X obj 443 25 inlet GO;
#X connect 0 0 31 0;
#X connect 1 0 7 0;
#X connect 2 0 8 0;
#X connect 3 0 1 0;
#X connect 4 0 19 0;
#X connect 4 1 5 1;
#X connect 4 2 5 0;
#X connect 5 0 9 0;
#X connect 6 0 24 0;
#X connect 7 0 33 0;
#X connect 8 0 7 1;
#X connect 9 0 17 0;
#X connect 10 0 19 1;
#X connect 10 1 11 1;
#X connect 10 2 11 0;
#X connect 11 0 12 0;
#X connect 12 0 16 0;
#X connect 13 0 19 2;
#X connect 13 1 14 1;
#X connect 13 2 14 0;
#X connect 14 0 15 0;
#X connect 15 0 16 1;
#X connect 16 0 17 1;
#X connect 17 0 18 0;
#X connect 17 0 20 0;
#X connect 18 0 6 1;
#X connect 19 0 6 0;
#X connect 20 0 22 0;
#X connect 21 0 30 0;
#X connect 22 0 29 0;
#X connect 24 0 25 0;
#X connect 26 0 31 1;
#X connect 27 0 31 2;
#X connect 29 0 23 0;
#X connect 30 0 22 1;
#X connect 31 0 33 1;
#X connect 32 0 4 0;
#X connect 32 1 10 0;
#X connect 32 2 13 0;
#X connect 33 0 32 0;
#X connect 34 0 24 0;
#X restore 459 552 pd drive;
#X obj 507 533 hsl 128 15 0 100 0 0 empty empty empty -2 -8 0 10 -262144
-1 -1 0 1;
#X obj 484 512 hsl 128 15 0 100 0 0 empty empty empty -2 -8 0 10 -262144
-1 -1 0 1;
#X obj 462 493 hsl 128 15 0 100 0 0 empty empty empty -2 -8 0 10 -262144
-1 -1 0 1;
#X msg 170 543 M410, f 5;
#X msg 109 556 M112;
#X msg 37 501 M999;
#X msg 691 70 50 50 5;
#X msg 727 93 80 60 25;
#X msg 670 49 30 10 2;
#X msg 648 98 10 90 0.1;
#X obj 648 157 t a;
#X msg 648 183 G1 X\$1 Y\$2 Z\$3;
#X obj 648 204 s GCODE;
#X obj 833 143 s GCODE;
#X msg 857 45 200;
#X msg 924 43 2000;
#X msg 827 45 20;
#X floatatom 833 101 5 0 0 0 - - -, f 5;
#X msg 890 44 500;
#X text 847 25 speed;
#X text 706 28 pos;
#X msg 833 122 G1 F\$1;
#X msg 736 48 70 20 10;
#X msg 751 70 90 95 95;
#X msg 718 116 100 60 25;
#X msg 632 72 20 70 1;
#X obj 653 443 r COUNT;
#X obj 653 464 change;
#X msg 722 488 G1 X\$1 Y\$2 Z\$3;
#X obj 722 509 s GCODE;
#X obj 849 529 s GCODE;
#X msg 849 508 G1 F\$1;
#X msg 868 469 100;
#X obj 653 538 timer;
#X floatatom 657 561 5 0 0 0 - - -, f 5;
#X obj 653 490 sel 1 0;
#X msg 716 405 40 40 20;
#N canvas 116 72 458 360 speed 0;
#X obj 154 74 t a a;
#X obj 196 134 unpack f f f;
#X obj 181 114 unpack f f f;
#X obj 181 161 -;
#X obj 215 160 -;
#X obj 250 158 -;
#X obj 21 224 abs;
#X obj 21 244 max;
#X obj 55 223 abs;
#X obj 55 243 max;
#X obj 90 223 abs;
#X obj 244 42 list split 3;
#X obj 263 254 /;
#X obj 127 50 t a a;
#X obj 127 308 outlet;
#X obj 290 321 outlet;
#X obj 244 17 inlet;
#X text 333 322 speed(step/mn);
#X obj 263 300 sel 0;
#X obj 278 102 max 0.1;
#X obj 263 276 * 60;
#X obj 182 207 *;
#X obj 181 187 t f f;
#X obj 217 207 *;
#X obj 216 187 t f f;
#X obj 252 206 *;
#X obj 251 186 t f f;
#X obj 214 229 +;
#X obj 182 230 +;
#X obj 182 252 sqrt;
#X connect 0 0 1 0;
#X connect 0 1 2 0;
#X connect 1 0 3 1;
#X connect 1 1 4 1;
#X connect 1 2 5 1;
#X connect 2 0 3 0;
#X connect 2 1 4 0;
#X connect 2 2 5 0;
#X connect 3 0 6 0;
#X connect 3 0 22 0;
#X connect 4 0 8 0;
#X connect 4 0 24 0;
#X connect 5 0 10 0;
#X connect 5 0 26 0;
#X connect 6 0 7 0;
#X connect 8 0 9 0;
#X connect 9 0 7 1;
#X connect 10 0 9 1;
#X connect 11 0 13 0;
#X connect 11 1 19 0;
#X connect 12 0 20 0;
#X connect 13 0 14 0;
#X connect 13 1 0 0;
#X connect 16 0 11 0;
#X connect 18 1 15 0;
#X connect 19 0 12 1;
#X connect 20 0 18 0;
#X connect 21 0 28 0;
#X connect 22 0 21 0;
#X connect 22 1 21 1;
#X connect 23 0 27 0;
#X connect 24 0 23 0;
#X connect 24 1 23 1;
#X connect 25 0 27 1;
#X connect 26 0 25 0;
#X connect 26 1 25 1;
#X connect 27 0 28 1;
#X connect 28 0 29 0;
#X connect 29 0 12 0;
#X restore 786 333 pd speed;
#X msg 786 304 50 50 10 10;
#X msg 730 436 50 50 10;
#X text 842 392 XYZ : SPEED/100=10STEP / 6s;
#X text 884 407 speed/100 * 6 /10 = step/s;
#X text 911 428 speed=step/mn;
#X floatatom 848 359 5 0 0 0 - - -, f 5;
#X msg 763 279 60 60 5 10;
#X msg 878 287 40 40 2 8;
#X msg 696 307 50 50 2 5;
#X msg 725 249 60 60 20 2;
#X obj 71 68 sel 1;
#X msg 71 117 10;
#X text 80 30 accel;
#X msg 71 137 M204 P\$1 T\$1 \, M201 X\$1 Y\$1;
#X msg 100 116 1000;
#X obj 71 158 s 0-GCODE;
#X obj 71 46 r 0-driver_connected;
#X obj 71 94 del 3000;
#X connect 1 0 53 0;
#X connect 2 0 1 0;
#X connect 3 0 0 0;
#X connect 4 0 0 0;
#X connect 5 0 0 0;
#X connect 6 0 24 0;
#X connect 7 0 24 0;
#X connect 8 0 24 0;
#X connect 9 0 0 0;
#X connect 10 0 1 0;
#X connect 11 0 0 0;
#X connect 12 0 11 0;
#X connect 13 0 11 0;
#X connect 14 0 0 0;
#X connect 15 0 0 0;
#X connect 16 0 19 0;
#X connect 17 0 19 0;
#X connect 18 0 19 0;
#X connect 19 0 15 0;
#X connect 20 0 1 0;
#X connect 21 0 1 0;
#X connect 22 0 19 0;
#X connect 23 0 19 0;
#X connect 24 0 5 0;
#X connect 25 0 24 0;
#X connect 26 0 29 0;
#X connect 27 0 29 0;
#X connect 28 0 29 0;
#X connect 29 0 14 0;
#X connect 30 0 29 0;
#X connect 31 0 29 0;
#X connect 32 0 41 0;
#X connect 33 0 36 1;
#X connect 34 0 42 0;
#X connect 35 0 32 0;
#X connect 36 0 37 0;
#X connect 37 0 39 0;
#X connect 37 1 38 1;
#X connect 37 2 38 0;
#X connect 38 0 40 0;
#X connect 38 0 44 0;
#X connect 39 0 1 0;
#X connect 40 0 39 1;
#X connect 41 0 36 0;
#X connect 42 0 41 1;
#X connect 44 0 47 0;
#X connect 45 0 36 1;
#X connect 46 0 36 1;
#X connect 47 0 49 0;
#X connect 48 0 50 0;
#X connect 49 0 52 0;
#X connect 49 0 54 0;
#X connect 50 0 49 1;
#X connect 52 0 5 0;
#X connect 53 0 0 0;
#X connect 54 0 51 0;
#X connect 56 0 55 2;
#X connect 57 0 55 1;
#X connect 58 0 55 0;
#X connect 59 0 0 0;
#X connect 60 0 0 0;
#X connect 61 0 0 0;
#X connect 62 0 66 0;
#X connect 63 0 66 0;
#X connect 64 0 66 0;
#X connect 65 0 66 0;
#X connect 66 0 67 0;
#X connect 67 0 68 0;
#X connect 70 0 73 0;
#X connect 71 0 73 0;
#X connect 72 0 73 0;
#X connect 73 0 77 0;
#X connect 74 0 73 0;
#X connect 77 0 69 0;
#X connect 78 0 66 0;
#X connect 79 0 66 0;
#X connect 80 0 66 0;
#X connect 81 0 66 0;
#X connect 82 0 83 0;
#X connect 83 0 91 0;
#X connect 84 0 85 0;
#X connect 87 0 86 0;
#X connect 88 0 87 0;
#X connect 89 0 90 0;
#X connect 91 0 89 0;
#X connect 91 1 89 1;
#X connect 92 0 84 0;
#X connect 93 0 84 0;
#X connect 93 1 99 0;
#X connect 93 1 87 0;
#X connect 94 0 93 0;
#X connect 95 0 84 0;
#X connect 100 0 93 0;
#X connect 101 0 93 0;
#X connect 102 0 93 0;
#X connect 103 0 93 0;
#X connect 104 0 111 0;
#X connect 105 0 107 0;
#X connect 107 0 109 0;
#X connect 108 0 107 0;
#X connect 110 0 104 0;
#X connect 111 0 105 0;
#X restore 310 13 pd tests;
#X obj 25 144 tgl 25 0 empty empty empty 17 7 0 10 -4034 -1 -1 0 1
;
#X obj 30 176 MarlinDriver 0 0;
#N canvas 584 120 594 590 Sequencer 0;
#X obj 179 201 textfile;
#X obj 179 182 r \$0-totextfile;
#X obj 179 159 s \$0-totextfile;
#X obj 179 239 list split 2;
#X obj 206 381 list;
#X obj 271 242 metro 100;
#X obj 271 279 i;
#X obj 297 279 + 1;
#X obj 271 299 / 10;
#X msg 271 203 0;
#X obj 271 224 tgl 15 0 empty empty empty 17 7 0 10 -262144 -1 -1 0
1;
#X obj 357 136 r \$0-totextfile;
#X obj 357 159 route bang rewind;
#X obj 357 182 spigot;
#X obj 357 201 t b b;
#X msg 393 201 0;
#X msg 406 179 1;
#X msg 299 203 1;
#X obj 179 306 +;
#X obj 152 330 moses;
#X msg 195 539 G1 X\$1 Y\$2 Z\$3;
#X msg 297 538 G1 F\$1;
#X msg 135 89 test1;
#X msg 179 139 read \$1.txt cr \, rewind \, bang;
#X obj 179 118 symbol;
#X obj 206 403 list trim;
#X floatatom 271 340 5 0 0 0 - - -, f 5;
#X msg 345 241 0;
#X obj 238 219 bng 15 250 50 0 empty empty empty 17 7 0 10 -262144
-1 -1;
#X obj 179 352 t b b;
#X obj 140 220 route #;
#X obj 112 254 print #;
#X obj 106 385 s \$0-totextfile;
#X obj 179 264 unpack f f;
#X obj 179 284 * 60;
#X obj 195 478 route pos;
#N canvas 104 102 485 438 speed 0;
#X obj 125 90 t a a;
#X obj 167 150 unpack f f f;
#X obj 152 130 unpack f f f;
#X obj 152 177 -;
#X obj 186 176 -;
#X obj 221 174 -;
#X obj 98 42 list split 3;
#X obj 153 293 /;
#X obj 98 66 t a a;
#X obj 98 324 outlet;
#X obj 180 360 outlet;
#X obj 98 17 inlet;
#X text 224 361 speed(step/mn);
#X obj 153 339 sel 0;
#X obj 311 167 max 0.1;
#X obj 153 315 * 60;
#X obj 153 223 *;
#X obj 152 203 t f f;
#X obj 188 223 *;
#X obj 187 203 t f f;
#X obj 223 222 *;
#X obj 222 202 t f f;
#X obj 185 245 +;
#X obj 153 246 +;
#X obj 153 268 sqrt;
#X connect 0 0 1 0;
#X connect 0 1 2 0;
#X connect 1 0 3 1;
#X connect 1 1 4 1;
#X connect 1 2 5 1;
#X connect 2 0 3 0;
#X connect 2 1 4 0;
#X connect 2 2 5 0;
#X connect 3 0 17 0;
#X connect 4 0 19 0;
#X connect 5 0 21 0;
#X connect 6 0 8 0;
#X connect 6 1 14 0;
#X connect 7 0 15 0;
#X connect 8 0 9 0;
#X connect 8 1 0 0;
#X connect 11 0 6 0;
#X connect 13 1 10 0;
#X connect 14 0 7 1;
#X connect 15 0 13 0;
#X connect 16 0 23 0;
#X connect 17 0 16 0;
#X connect 17 1 16 1;
#X connect 18 0 22 0;
#X connect 19 0 18 0;
#X connect 19 1 18 1;
#X connect 20 0 22 1;
#X connect 21 0 20 0;
#X connect 21 1 20 1;
#X connect 22 0 23 1;
#X connect 23 0 24 0;
#X connect 24 0 7 0;
#X restore 195 507 pd speed;
#X obj 195 560 s 0-GCODE;
#X obj 297 559 s 0-GCODE;
#X obj 179 21 inlet, f 6;
#X obj 465 529 outlet;
#X obj 438 389 t f f;
#X obj 465 428 t f f;
#X obj 492 448 i;
#X obj 492 467 div 60;
#X obj 492 487 * 60;
#X obj 465 510 -;
#X obj 416 474 div 60;
#X obj 416 530 outlet;
#X obj 179 47 route stop;
#X obj 279 435 s SeqMsg;
#X obj 236 69 t a b b;
#X msg 294 104 reset;
#X connect 0 0 30 0;
#X connect 0 1 28 0;
#X connect 0 1 9 0;
#X connect 1 0 0 0;
#X connect 3 0 33 0;
#X connect 3 1 4 1;
#X connect 4 0 25 0;
#X connect 5 0 6 0;
#X connect 6 0 7 0;
#X connect 6 0 8 0;
#X connect 7 0 6 1;
#X connect 8 0 19 0;
#X connect 8 0 26 0;
#X connect 8 0 41 0;
#X connect 9 0 10 0;
#X connect 10 0 5 0;
#X connect 11 0 12 0;
#X connect 12 0 13 0;
#X connect 12 1 16 0;
#X connect 13 0 14 0;
#X connect 14 0 17 0;
#X connect 14 1 15 0;
#X connect 14 1 27 0;
#X connect 15 0 13 1;
#X connect 16 0 13 1;
#X connect 17 0 10 0;
#X connect 18 0 19 1;
#X connect 19 1 29 0;
#X connect 20 0 37 0;
#X connect 21 0 38 0;
#X connect 22 0 24 0;
#X connect 23 0 2 0;
#X connect 24 0 23 0;
#X connect 25 0 50 0;
#X connect 27 0 6 1;
#X connect 29 0 32 0;
#X connect 29 1 4 0;
#X connect 30 0 31 0;
#X connect 30 1 3 0;
#X connect 33 0 34 0;
#X connect 33 1 18 1;
#X connect 34 0 18 0;
#X connect 35 0 36 0;
#X connect 36 0 20 0;
#X connect 36 1 21 0;
#X connect 39 0 49 0;
#X connect 41 0 47 0;
#X connect 41 1 42 0;
#X connect 42 0 46 0;
#X connect 42 1 43 0;
#X connect 43 0 44 0;
#X connect 44 0 45 0;
#X connect 45 0 46 1;
#X connect 46 0 40 0;
#X connect 47 0 48 0;
#X connect 49 0 9 0;
#X connect 49 0 52 0;
#X connect 49 1 51 0;
#X connect 51 0 24 0;
#X connect 51 1 52 0;
#X connect 51 2 9 0;
#X connect 52 0 50 0;
#X restore 162 217 pd Sequencer;
#X msg 162 197 test1;
#X floatatom 162 242 5 0 0 0 - - -, f 5;
#X floatatom 231 243 5 0 0 0 - - -, f 5;
#X msg 206 197 stop;
#X obj 866 52 line;
#X obj 834 11 hsl 128 15 0 10 0 0 empty empty empty -2 -8 0 10 -262144
-1 -1 0 1;
#X msg 866 29 \$1 2000;
#X obj 852 158 gcanvas 80 80;
#X floatatom 858 287 5 0 0 0 - - -, f 5;
#X floatatom 903 288 5 0 0 0 - - -, f 5;
#X obj 824 307 clip 0 100;
#X obj 897 308 clip 0 100;
#X obj 180 400 s SeqMsg;
#X msg 182 337 speed0 1 \, pos0 57 54 0.2;
#X obj 356 151 r 0-COUNT;
#X floatatom 356 183 5 0 0 0 - - -, f 5;
#X msg 146 171 test2;
#X msg 403 305 1 1 1;
#X msg 403 389 0 0 0;
#X msg 403 328 0.1 0.1 0.1;
#X msg 199 370 speed0 1 \, pos0 53 53 2;
#X msg 374 423 rnd0 \$1 \$2 \$3;
#X msg 67 337 speed0 \$1;
#X floatatom 67 318 5 0 1 0 - - -, f 5;
#X msg 67 296 1;
#X msg 98 295 0.1;
#X msg 127 294 0.03;
#X msg 407 357 0.01 0.01 0.01;
#X msg 402 278 2 2 0.1;
#X obj 499 250 s 0-GCODE;
#X msg 499 211 G28 X;
#X msg 539 210 G28 Y;
#X msg 588 211 G28 Z;
#X obj 442 74 ATEMface;
#X obj 42 52 declare -path ATEM -path 3Dctl;
#X connect 4 0 2 0;
#X connect 6 0 8 0;
#X connect 6 1 9 0;
#X connect 7 0 6 0;
#X connect 10 0 6 0;
#X connect 12 0 13 0;
#X connect 13 0 11 0;
#X connect 14 0 15 0;
#X connect 14 0 17 0;
#X connect 14 1 16 0;
#X connect 14 1 18 0;
#X connect 20 0 19 0;
#X connect 21 0 22 0;
#X connect 23 0 6 0;
#X connect 24 0 28 0;
#X connect 25 0 28 0;
#X connect 26 0 28 0;
#X connect 27 0 19 0;
#X connect 28 0 19 0;
#X connect 29 0 19 0;
#X connect 30 0 29 0;
#X connect 31 0 30 0;
#X connect 32 0 30 0;
#X connect 33 0 30 0;
#X connect 34 0 28 0;
#X connect 35 0 28 0;
#X connect 37 0 36 0;
#X connect 39 0 36 0;
