#N canvas 221 105 692 797 10;
#X obj 236 489 getdir;
#X obj 247 462 bng 15 250 50 0 empty empty empty 17 7 0 10 -262144
-1 -1;
#X obj 291 352 netsend;
#X obj 291 376 tgl 15 0 empty empty empty 17 7 0 10 -262144 -1 -1 1
1;
#X msg 325 312 connect localhost 32111;
#X obj 292 244 list prepend send;
#X obj 292 266 list trim;
#X msg 231 219 connect 192.168.10.240;
#X msg 79 333 disconnect;
#X obj 291 286 t b a b;
#X msg 299 122 program \$1;
#X obj 297 80 hradio 15 1 0 8 empty empty empty 0 -8 0 10 -262144 -1
-1 5;
#X obj 311 148 hradio 15 1 0 8 empty empty empty 0 -8 0 10 -262144
-1 -1 0;
#X obj 311 168 + 1;
#X msg 313 190 preview \$1;
#X obj 463 70 vsl 15 128 0 10000 0 0 empty empty empty 0 -9 0 10 -262144
-1 -1 0 1;
#X msg 428 212 transition \$1;
#X floatatom 465 270 5 0 0 0 - - -, f 5;
#X msg 487 155 10000;
#X obj 449 260 bng 15 250 50 0 empty empty empty 17 7 0 10 -262144
-1 -1;
#X obj 339 377 route connected;
#X obj 326 331 t a b;
#X msg 354 352 0;
#X msg 339 397 1;
#X obj 290 398 sel 1;
#X obj 290 418 del 100;
#X obj 365 421 tgl 15 0 empty empty empty 17 7 0 10 -262144 -1 -1 0
1;
#X obj 53 285 t b b;
#X msg 58 509 killall qatemserver;
#X obj 51 250 bng 15 250 50 0 empty empty empty 17 7 0 10 -258113 -1
-1;
#X obj 152 247 bng 15 250 50 0 empty empty empty 17 7 0 10 -4034 -1
-1;
#X msg 108 294 stop;
#X msg 511 313 style \$1;
#X obj 511 269 hradio 15 1 0 8 empty empty empty 0 -8 0 10 -262144
-1 -1 0;
#X obj 498 361 hradio 15 1 0 3 empty empty intern/sdi/hdmi 0 -8 0 10
-262144 -1 -1 1;
#X obj 498 425 hradio 15 1 0 3 empty empty intern/sdi/hdmi 0 -8 0 10
-262144 -1 -1 1;
#X msg 498 450 input 3 \$1;
#X obj 498 568 hradio 15 1 0 3 empty empty intern/sdi/hdmi 0 -8 0 10
-262144 -1 -1 1;
#X msg 498 593 input 4 \$1;
#X msg 121 753 format \$1;
#X obj 121 631 vradio 15 1 0 8 empty empty empty 0 -8 0 10 -262144
-1 -1 5;
#X text 139 631 0 = 525i5994, f 21;
#X text 139 646 1 = 625i50, f 15;
#X text 139 660 2 = 525i5994 16:9, f 23;
#X text 133 675 3 = 625i50 16:9, f 28;
#X text 139 692 4 = 720p50, f 15;
#X text 140 707 5 = 720p5994, f 28;
#X text 141 722 6 = 1080i50, f 28;
#X text 142 737 7 = 1080i5994, f 28;
#X obj 511 289 + 0;
#X msg 498 385 input 1 \$1;
#X obj 485 633 hradio 15 1 0 3 empty empty intern/sdi/hdmi 0 -8 0 10
-262144 -1 -1 1;
#X msg 482 655 input 5 \$1;
#X obj 297 100 + 1;
#X obj 369 662 hradio 15 1 0 3 empty empty intern/sdi/hdmi 0 -8 0 10
-262144 -1 -1 1;
#X obj 356 727 hradio 15 1 0 3 empty empty intern/sdi/hdmi 0 -8 0 10
-262144 -1 -1 1;
#X msg 369 687 input 6 \$1;
#X msg 353 749 input 7 \$1;
#X obj 583 449 hradio 15 1 0 3 empty empty intern/sdi/hdmi 0 -8 0 10
-262144 -1 -1 1;
#X msg 583 474 input 2 \$1;
#X obj 90 575 ggee/shell;
#X obj 558 144 line 0 50;
#X msg 561 119 0 \, 10000 \$1;
#X msg 571 68 2000;
#X msg 599 89 800;
#X obj 151 297 del 100;
#X msg 459 723 nohup \$1/libqatemcontrol-master/example/qatemserver/qatemserver
&;
#X msg 233 512 nohup \$1/qatemserver.arm &;
#X obj 35 13 r ATEM;
#X obj 35 36 route fadeTo;
#X obj 35 58 unpack f f;
#X obj 232 188 r ATEMsrv;
#X obj 118 131 line 0 50;
#X msg 118 109 0 \, 10000 \$1;
#X obj 118 86 * 1000;
#X msg 118 151 transition \$1;
#X msg 35 151 preview \$1;
#X obj 35 106 + 2;
#X obj 35 181 s ATEMsrv;
#X obj 177 9 r SeqMsg;
#X obj 177 31 route reset;
#X obj 251 52 s ATEM;
#X obj 151 276 t b b b;
#X connect 0 0 67 0;
#X connect 1 0 0 0;
#X connect 2 0 3 0;
#X connect 2 1 20 0;
#X connect 3 0 24 0;
#X connect 4 0 21 0;
#X connect 5 0 6 0;
#X connect 6 0 9 0;
#X connect 7 0 5 0;
#X connect 8 0 2 0;
#X connect 8 0 22 0;
#X connect 9 1 2 0;
#X connect 10 0 5 0;
#X connect 11 0 53 0;
#X connect 12 0 13 0;
#X connect 13 0 14 0;
#X connect 14 0 5 0;
#X connect 15 0 17 0;
#X connect 15 0 16 0;
#X connect 15 0 19 0;
#X connect 16 0 5 0;
#X connect 18 0 16 0;
#X connect 20 0 23 0;
#X connect 21 0 2 0;
#X connect 21 1 22 0;
#X connect 22 0 26 0;
#X connect 23 0 26 0;
#X connect 24 0 25 0;
#X connect 25 0 7 0;
#X connect 27 0 28 0;
#X connect 27 1 8 0;
#X connect 27 1 31 0;
#X connect 28 0 60 0;
#X connect 29 0 27 0;
#X connect 30 0 82 0;
#X connect 31 0 65 0;
#X connect 32 0 5 0;
#X connect 33 0 49 0;
#X connect 34 0 50 0;
#X connect 35 0 36 0;
#X connect 36 0 5 0;
#X connect 37 0 38 0;
#X connect 38 0 5 0;
#X connect 39 0 5 0;
#X connect 40 0 39 0;
#X connect 49 0 32 0;
#X connect 50 0 5 0;
#X connect 51 0 52 0;
#X connect 52 0 5 0;
#X connect 53 0 10 0;
#X connect 54 0 56 0;
#X connect 55 0 57 0;
#X connect 56 0 5 0;
#X connect 57 0 5 0;
#X connect 58 0 59 0;
#X connect 59 0 5 0;
#X connect 61 0 15 0;
#X connect 62 0 61 0;
#X connect 63 0 62 0;
#X connect 64 0 62 0;
#X connect 65 0 4 0;
#X connect 67 0 60 0;
#X connect 68 0 69 0;
#X connect 69 0 70 0;
#X connect 70 0 77 0;
#X connect 70 1 74 0;
#X connect 71 0 5 0;
#X connect 72 0 75 0;
#X connect 73 0 72 0;
#X connect 74 0 73 0;
#X connect 75 0 78 0;
#X connect 76 0 78 0;
#X connect 77 0 76 0;
#X connect 79 0 80 0;
#X connect 80 0 30 0;
#X connect 80 1 81 0;
#X connect 82 0 65 0;
#X connect 82 1 0 0;
#X connect 82 2 29 0;
