#N canvas 229 81 692 797 10;
#X obj 236 489 getdir;
#X obj 247 462 bng 15 250 50 0 empty empty empty 17 7 0 10 -262144
-1 -1;
#X obj 291 352 netsend;
#X obj 291 376 tgl 15 0 empty empty empty 17 7 0 10 -262144 -1 -1 1
1;
#X msg 325 312 connect localhost 32111;
#X obj 292 244 list prepend send;
#X obj 292 266 list trim;
#X msg 230 211 connect 192.168.10.240;
#X msg 72 300 disconnect;
#X obj 291 286 t b a b;
#X msg 299 122 program \$1;
#X obj 297 80 hradio 15 1 0 8 empty empty empty 0 -8 0 10 -262144 -1
-1 5;
#N canvas 4 75 450 300 old 0;
#X obj 72 51 print udp;
#X obj 98 240 netsend -u -b;
#X floatatom 98 270 5 0 0 0 - - -, f 5;
#X msg 113 217 disconnect;
#X msg 261 24 _ver;
#X obj 260 90 list fromsymbol;
#X obj 259 66 symbol;
#X obj 258 141 list prepend send;
#X obj 258 161 list trim;
#X obj 268 118 list append 10;
#X msg 297 23 _pin;
#X msg 98 197 connect 192.168.10.240 9910;
#X obj 70 113 print udp;
#X obj 72 23 l netreceive -u -b 56417;
#X obj 70 85 l netreceive -u -b 9910;
#X connect 1 0 2 0;
#X connect 3 0 1 0;
#X connect 4 0 6 0;
#X connect 5 0 7 0;
#X connect 6 0 5 0;
#X connect 7 0 8 0;
#X connect 8 0 1 0;
#X connect 9 0 7 0;
#X connect 10 0 6 0;
#X connect 11 0 1 0;
#X connect 13 0 0 0;
#X connect 14 0 12 0;
#X restore 99 41 pd old;
#X obj 311 148 hradio 15 1 0 8 empty empty empty 0 -8 0 10 -262144
-1 -1 0;
#X obj 311 168 + 1;
#X msg 313 190 preview \$1;
#X obj 463 70 vsl 15 128 0 10000 0 0 empty empty empty 0 -9 0 10 -262144
-1 -1 0 1;
#X msg 428 212 transition \$1;
#X floatatom 465 270 5 0 0 0 - - -, f 5;
#X msg 487 155 10000;
#X obj 449 260 bng 15 250 50 0 empty empty empty 17 7 0 10 -262144
-1 -1;
#X obj 339 377 route connected;
#X obj 326 331 t a b;
#X msg 354 352 0;
#X msg 339 397 1;
#X obj 290 398 sel 1;
#X obj 290 418 del 100;
#X obj 365 421 tgl 15 0 empty empty empty 17 7 0 10 -262144 -1 -1 1
1;
#X obj 46 252 t b b;
#X msg 233 512 nohup \$1/libqatemcontrol-master/example/qatemserver/qatemserver
&;
#X msg 58 509 killall qatemserver;
#X obj 44 217 bng 15 250 50 0 empty empty empty 17 7 0 10 -258113 -1
-1;
#X obj 134 220 bng 15 250 50 0 empty empty empty 17 7 0 10 -4034 -1
-1;
#X obj 134 239 t b b;
#X msg 101 261 stop;
#X msg 511 313 style \$1;
#X obj 511 269 hradio 15 1 0 8 empty empty empty 0 -8 0 10 -262144
-1 -1 0;
#X obj 498 361 hradio 15 1 0 3 empty empty intern/sdi/hdmi 0 -8 0 10
-262144 -1 -1 1;
#X obj 498 425 hradio 15 1 0 3 empty empty intern/sdi/hdmi 0 -8 0 10
-262144 -1 -1 1;
#X msg 498 450 input 3 \$1;
#X obj 498 568 hradio 15 1 0 3 empty empty intern/sdi/hdmi 0 -8 0 10
-262144 -1 -1 1;
#X msg 498 593 input 4 \$1;
#X msg 121 753 format \$1;
#X obj 121 631 vradio 15 1 0 8 empty empty empty 0 -8 0 10 -262144
-1 -1 5;
#X text 139 631 0 = 525i5994, f 21;
#X text 139 646 1 = 625i50, f 15;
#X text 139 660 2 = 525i5994 16:9, f 23;
#X text 133 675 3 = 625i50 16:9, f 28;
#X text 139 692 4 = 720p50, f 15;
#X text 140 707 5 = 720p5994, f 28;
#X text 141 722 6 = 1080i50, f 28;
#X text 142 737 7 = 1080i5994, f 28;
#X obj 511 289 + 0;
#X msg 498 385 input 1 \$1;
#X obj 485 633 hradio 15 1 0 3 empty empty intern/sdi/hdmi 0 -8 0 10
-262144 -1 -1 1;
#X msg 482 655 input 5 \$1;
#X obj 297 100 + 1;
#X obj 369 662 hradio 15 1 0 3 empty empty intern/sdi/hdmi 0 -8 0 10
-262144 -1 -1 1;
#X obj 356 727 hradio 15 1 0 3 empty empty intern/sdi/hdmi 0 -8 0 10
-262144 -1 -1 1;
#X msg 369 687 input 6 \$1;
#X msg 353 749 input 7 \$1;
#X obj 583 449 hradio 15 1 0 3 empty empty intern/sdi/hdmi 0 -8 0 10
-262144 -1 -1 1;
#X msg 583 474 input 2 \$1;
#X obj 90 575 ggee/shell;
#X obj 558 144 line 0 50;
#X msg 561 119 0 \, 10000 \$1;
#X msg 571 68 2000;
#X msg 599 89 800;
#X obj 134 260 del 100;
#X connect 0 0 29 0;
#X connect 1 0 0 0;
#X connect 2 0 3 0;
#X connect 2 1 21 0;
#X connect 3 0 25 0;
#X connect 4 0 22 0;
#X connect 5 0 6 0;
#X connect 6 0 9 0;
#X connect 7 0 5 0;
#X connect 8 0 2 0;
#X connect 8 0 23 0;
#X connect 9 1 2 0;
#X connect 10 0 5 0;
#X connect 11 0 56 0;
#X connect 13 0 14 0;
#X connect 14 0 15 0;
#X connect 15 0 5 0;
#X connect 16 0 18 0;
#X connect 16 0 17 0;
#X connect 16 0 20 0;
#X connect 17 0 5 0;
#X connect 19 0 17 0;
#X connect 21 0 24 0;
#X connect 22 0 2 0;
#X connect 22 1 23 0;
#X connect 23 0 27 0;
#X connect 24 0 27 0;
#X connect 25 0 26 0;
#X connect 26 0 7 0;
#X connect 28 0 30 0;
#X connect 28 1 8 0;
#X connect 28 1 34 0;
#X connect 29 0 63 0;
#X connect 30 0 63 0;
#X connect 31 0 28 0;
#X connect 32 0 33 0;
#X connect 33 0 68 0;
#X connect 33 1 0 0;
#X connect 34 0 68 0;
#X connect 35 0 5 0;
#X connect 36 0 52 0;
#X connect 37 0 53 0;
#X connect 38 0 39 0;
#X connect 39 0 5 0;
#X connect 40 0 41 0;
#X connect 41 0 5 0;
#X connect 42 0 5 0;
#X connect 43 0 42 0;
#X connect 52 0 35 0;
#X connect 53 0 5 0;
#X connect 54 0 55 0;
#X connect 55 0 5 0;
#X connect 56 0 10 0;
#X connect 57 0 59 0;
#X connect 58 0 60 0;
#X connect 59 0 5 0;
#X connect 60 0 5 0;
#X connect 61 0 62 0;
#X connect 62 0 5 0;
#X connect 64 0 16 0;
#X connect 65 0 64 0;
#X connect 66 0 65 0;
#X connect 67 0 65 0;
#X connect 68 0 4 0;
