#N canvas 632 158 877 670 10;
#X obj 147 133 tgl 15 0 empty empty empty 17 7 0 10 -262144 -1 -1 0
1;
#X msg 147 227 close;
#X obj 147 152 sel 0 1;
#X obj 76 164 metro 500;
#X msg 76 185 info;
#X obj 76 118 loadbang;
#X obj 98 140 bng 15 250 50 0 empty empty empty 17 7 0 10 -262144 -1
-1;
#X obj 411 362 route open;
#X obj 411 385 tgl 15 0 empty empty empty 17 7 0 10 -262144 -1 -1 0
1;
#X floatatom 60 434 8 0 0 3 X - -, f 8;
#X floatatom 151 432 8 0 0 3 Y - -, f 8;
#X floatatom 213 431 8 0 0 3 Z - -, f 8;
#X obj 254 191 change;
#X obj 254 212 tgl 15 0 empty empty empty 17 7 0 10 -262144 -1 -1 0
1;
#X obj 378 118 spigot;
#X msg 254 256 print M114 \, 10;
#X obj 378 164 list fromsymbol;
#X obj 378 142 l2s;
#X obj 379 186 list append 10;
#X msg 310 197 50;
#X obj 271 91 sel 0 1;
#X msg 271 134 0;
#X msg 299 134 1;
#X msg 264 115 stop;
#X obj 282 156 f;
#X msg 178 129 set -1 \, 0;
#X obj 299 113 del 2000;
#X obj 324 163 bng 15 250 50 0 empty empty empty 17 7 0 10 -262144
-1 -1;
#N canvas 614 82 715 684 XYZC 0;
#X obj 122 47 inlet;
#X obj 122 70 sel 10;
#X obj 83 156 bng 15 250 50 0 empty empty empty 17 7 0 10 -262144 -1
-1;
#X obj 122 191 list trim;
#X obj 122 554 outlet;
#X obj 155 92 moses 32;
#X obj 200 112 moses 127;
#X obj 122 162 repack 2048;
#X obj 122 458 list tosymbol;
#X obj 122 221 route 88;
#X obj 122 244 route 58;
#X text 99 230 X :, f 2;
#N canvas 1 82 450 300 goto_next_space 0;
#X obj 128 122 route 32;
#X obj 173 145 list split 1;
#X obj 128 90 inlet;
#X obj 128 177 outlet;
#X connect 0 0 3 0;
#X connect 0 1 1 0;
#X connect 1 1 0 0;
#X connect 2 0 0 0;
#X restore 122 279 pd goto_next_space;
#N canvas 1 58 450 300 goto_next_space 0;
#X obj 128 122 route 32;
#X obj 173 145 list split 1;
#X obj 128 90 inlet;
#X obj 128 177 outlet;
#X connect 0 0 3 0;
#X connect 0 1 1 0;
#X connect 1 1 0 0;
#X connect 2 0 0 0;
#X restore 122 302 pd goto_next_space;
#X text 74 279 xval;
#X text 69 303 Y:yval;
#N canvas 1 58 450 300 goto_next_space 0;
#X obj 128 122 route 32;
#X obj 173 145 list split 1;
#X obj 128 90 inlet;
#X obj 128 177 outlet;
#X connect 0 0 3 0;
#X connect 0 1 1 0;
#X connect 1 1 0 0;
#X connect 2 0 0 0;
#X restore 122 324 pd goto_next_space;
#N canvas 1 58 450 300 goto_next_space 0;
#X obj 128 122 route 32;
#X obj 173 145 list split 1;
#X obj 128 90 inlet;
#X obj 128 177 outlet;
#X connect 0 0 3 0;
#X connect 0 1 1 0;
#X connect 1 1 0 0;
#X connect 2 0 0 0;
#X restore 122 346 pd goto_next_space;
#X text 69 325 Z:yval;
#X text 69 347 E:yval;
#N canvas 1 58 450 300 goto_next_space 0;
#X obj 128 122 route 32;
#X obj 173 145 list split 1;
#X obj 128 90 inlet;
#X obj 128 177 outlet;
#X connect 0 0 3 0;
#X connect 0 1 1 0;
#X connect 1 1 0 0;
#X connect 2 0 0 0;
#X restore 122 371 pd goto_next_space;
#X text 70 369 Count;
#X obj 122 397 route 88;
#X obj 122 420 route 58;
#N canvas 1 63 450 300 goto_next_space 0;
#X obj 128 122 route 32;
#X obj 173 145 list split 1;
#X obj 128 90 inlet;
#X obj 128 177 outlet;
#X connect 0 0 3 0;
#X connect 0 1 1 0;
#X connect 1 1 0 0;
#X connect 2 0 0 0;
#X restore 216 455 pd goto_next_space;
#X obj 216 502 route 58;
#X obj 216 479 route 89;
#X obj 122 484 s2l;
#X msg 122 507 \$1;
#X floatatom 135 533 5 0 0 0 - - -, f 5;
#X obj 216 525 list tosymbol;
#X obj 216 551 s2l;
#X msg 216 574 \$1;
#X floatatom 248 602 5 0 0 0 - - -, f 5;
#N canvas 1 63 450 300 goto_next_space 0;
#X obj 128 122 route 32;
#X obj 173 145 list split 1;
#X obj 128 90 inlet;
#X obj 128 177 outlet;
#X connect 0 0 3 0;
#X connect 0 1 1 0;
#X connect 1 1 0 0;
#X connect 2 0 0 0;
#X restore 318 477 pd goto_next_space;
#X obj 318 524 route 58;
#X obj 318 547 list tosymbol;
#X obj 318 573 s2l;
#X msg 318 596 \$1;
#X floatatom 346 625 5 0 0 0 - - -, f 5;
#X obj 318 501 route 90;
#X obj 216 619 outlet;
#X obj 318 641 outlet;
#X obj 324 209 list tosymbol;
#X obj 324 295 print MARLIN;
#X obj 324 236 sel ok;
#X obj 532 528 print;
#N canvas 1 63 450 300 goto_next_space 0;
#X obj 128 122 route 32;
#X obj 173 145 list split 1;
#X obj 128 90 inlet;
#X obj 128 177 outlet;
#X connect 0 0 3 0;
#X connect 0 1 1 0;
#X connect 1 1 0 0;
#X connect 2 0 0 0;
#X restore 447 475 pd goto_next_space;
#X obj 447 522 route 58;
#X obj 447 545 list tosymbol;
#X obj 447 571 s2l;
#X msg 447 594 \$1;
#X floatatom 475 623 5 0 0 0 - - -, f 5;
#X obj 447 639 outlet;
#X obj 447 499 route 67;
#N canvas 1 63 450 300 goto_next_space 0;
#X obj 128 122 route 32;
#X obj 173 145 list split 1;
#X obj 128 90 inlet;
#X obj 128 177 outlet;
#X connect 0 0 3 0;
#X connect 0 1 1 0;
#X connect 1 1 0 0;
#X connect 2 0 0 0;
#X restore 581 470 pd goto_next_space;
#X obj 581 517 route 58;
#X obj 581 540 list tosymbol;
#X obj 581 566 s2l;
#X msg 581 589 \$1;
#X floatatom 609 618 5 0 0 0 - - -, f 5;
#X obj 581 634 outlet;
#X obj 581 494 route 69;
#X obj 429 331 print;
#X obj 433 307 spigot;
#X obj 469 287 tgl 15 0 empty empty empty 17 7 0 10 -262144 -1 -1 0
1;
#X obj 434 263 list tosymbol;
#X connect 0 0 1 0;
#X connect 1 0 7 0;
#X connect 1 1 5 0;
#X connect 2 0 7 0;
#X connect 3 0 9 0;
#X connect 5 1 6 0;
#X connect 6 0 7 0;
#X connect 7 0 3 0;
#X connect 8 0 27 0;
#X connect 9 0 10 0;
#X connect 9 1 43 0;
#X connect 10 0 12 0;
#X connect 12 0 13 0;
#X connect 13 0 16 0;
#X connect 16 0 17 0;
#X connect 17 0 20 0;
#X connect 20 0 22 0;
#X connect 22 0 23 0;
#X connect 23 0 24 0;
#X connect 23 0 8 0;
#X connect 24 0 26 0;
#X connect 25 0 30 0;
#X connect 25 0 34 0;
#X connect 26 0 25 0;
#X connect 27 0 28 0;
#X connect 28 0 29 0;
#X connect 28 0 4 0;
#X connect 30 0 31 0;
#X connect 31 0 32 0;
#X connect 32 0 33 0;
#X connect 32 0 41 0;
#X connect 34 0 40 0;
#X connect 35 0 36 0;
#X connect 35 0 47 0;
#X connect 36 0 37 0;
#X connect 37 0 38 0;
#X connect 38 0 39 0;
#X connect 38 0 42 0;
#X connect 40 0 35 0;
#X connect 43 0 45 0;
#X connect 45 1 44 0;
#X connect 47 0 54 0;
#X connect 48 0 49 0;
#X connect 48 0 55 0;
#X connect 49 0 50 0;
#X connect 50 0 51 0;
#X connect 51 0 52 0;
#X connect 51 0 53 0;
#X connect 54 0 48 0;
#X connect 55 0 62 0;
#X connect 56 0 57 0;
#X connect 57 0 58 0;
#X connect 58 0 59 0;
#X connect 59 0 60 0;
#X connect 59 0 61 0;
#X connect 62 0 56 0;
#X connect 64 0 63 0;
#X connect 65 0 64 1;
#X connect 66 0 64 0;
#X restore 147 338 pd XYZC;
#X floatatom 279 425 8 0 0 3 C - -, f 8;
#X obj 631 400 sel 0 1;
#X obj 53 43 tgl 30 0 \$1-driver_on \$1-driver_on On 0 -7 0 10 -262144
-1 -1 0 1;
#X obj 565 376 loadbang;
#X msg 565 397 set 1;
#X obj 163 89 route float;
#X msg 631 429 color 0 22 22;
#X msg 724 429 color 15 22 22;
#X obj 254 233 metro 50;
#X obj 147 300 comport \$2 115200;
#X obj 147 55 r \$1-driver_on;
#X obj 411 424 s \$1-driver_connected;
#X obj 631 375 r \$1-driver_connected;
#X obj 631 453 s \$1-driver_on;
#X obj 378 97 r \$1-GCODE;
#X obj 194 389 s \$1-CURZ;
#X obj 263 391 s \$1-COUNT;
#X obj 123 388 s \$1-CURY;
#X obj 59 383 s \$1-CURX;
#X obj 411 405 change -1;
#X text 179 18 MarlinDriver num serialport;
#X floatatom 339 422 8 0 0 3 E - -, f 8;
#X obj 312 366 s \$1-CURE;
#X obj 620 290 s \$1-GCODE;
#X msg 612 199 1;
#X msg 647 196 20;
#X msg 685 194 1;
#X msg 720 191 20;
#X msg 785 230 G28 X;
#X obj 543 147 s GCODE;
#X msg 567 49 200;
#X msg 634 47 2000;
#X msg 537 49 20;
#X floatatom 543 105 5 0 0 0 - - -, f 5;
#X msg 600 48 500;
#X text 557 29 speed;
#X msg 543 126 G1 F\$1;
#X msg 548 201 1;
#X msg 583 198 20;
#X msg 549 240 G1 Z \$1;
#X msg 613 238 G1 X \$1;
#X msg 686 233 G1 Y \$1;
#X msg 587 317 M999;
#X text 786 205 homing;
#X text 799 306 servo1 1500us;
#X msg 785 255 G28 Y;
#X msg 784 278 G28 Z;
#X msg 785 325 M280 1 1300;
#X obj 148 32 r \$1-COUNT;
#X floatatom 90 59 5 0 0 2 count - -, f 5;
#X obj 271 50 r \$1-driver_connected;
#N canvas 1 167 685 563 SEQCTL 0;
#X floatatom 206 314 5 0 0 0 - - -, f 5;
#X msg 69 459 G1 X\$1 Y\$2 Z\$3;
#X msg 171 458 G1 F\$1;
#N canvas 768 141 485 523 speed 0;
#X obj 167 150 unpack f f f;
#X obj 152 130 unpack f f f;
#X obj 152 177 -;
#X obj 186 176 -;
#X obj 221 174 -;
#X obj 98 42 list split 3;
#X obj 207 340 /;
#X obj 98 66 t a a;
#X obj 134 400 outlet;
#X obj 234 407 outlet;
#X obj 98 17 inlet;
#X text 278 408 speed(step/mn);
#X obj 207 386 sel 0;
#X obj 311 167 max 0.1;
#X obj 207 362 * 60;
#X obj 153 223 *;
#X obj 152 203 t f f;
#X obj 188 223 *;
#X obj 187 203 t f f;
#X obj 223 222 *;
#X obj 222 202 t f f;
#X obj 185 245 +;
#X obj 153 246 +;
#X obj 153 268 sqrt;
#X floatatom 70 223 57 0 0 0 - - -, f 57;
#X floatatom 279 348 57 0 0 0 - - -, f 57;
#X floatatom 263 378 5 0 0 0 - - -, f 5;
#X obj 175 344 list;
#X obj 133 90 t a a a;
#X obj 180 312 t b f;
#X obj 153 290 sel 0;
#X floatatom 305 294 5 0 0 0 - - -, f 5;
#X connect 0 0 2 1;
#X connect 0 1 3 1;
#X connect 0 2 4 1;
#X connect 1 0 2 0;
#X connect 1 1 3 0;
#X connect 1 2 4 0;
#X connect 2 0 16 0;
#X connect 2 0 24 0;
#X connect 3 0 18 0;
#X connect 4 0 20 0;
#X connect 5 0 7 0;
#X connect 5 1 13 0;
#X connect 6 0 14 0;
#X connect 7 1 28 0;
#X connect 10 0 5 0;
#X connect 12 1 9 0;
#X connect 13 0 6 1;
#X connect 14 0 12 0;
#X connect 14 0 26 0;
#X connect 15 0 22 0;
#X connect 16 0 15 0;
#X connect 16 1 15 1;
#X connect 17 0 21 0;
#X connect 18 0 17 0;
#X connect 18 1 17 1;
#X connect 19 0 21 1;
#X connect 20 0 19 0;
#X connect 20 1 19 1;
#X connect 21 0 22 1;
#X connect 22 0 23 0;
#X connect 23 0 30 0;
#X connect 27 0 8 0;
#X connect 28 0 0 0;
#X connect 28 1 1 0;
#X connect 28 2 27 1;
#X connect 29 0 27 0;
#X connect 29 1 6 0;
#X connect 30 1 29 0;
#X connect 30 1 25 0;
#X restore 69 427 pd speed;
#X obj 319 278 pack f f f;
#X obj 69 171 list;
#X obj 69 110 tgl 15 0 empty empty empty 17 7 0 10 -262144 -1 -1 1
1;
#X floatatom 310 235 5 0 0 0 - - -, f 5;
#X obj 329 255 t b f;
#X obj 69 353 list append 0.025;
#N canvas 1 68 450 300 filter 0;
#X obj 134 73 inlet;
#X obj 134 95 unpack f f f;
#X obj 134 179 pack f f f;
#X obj 134 201 outlet;
#X obj 261 76 inlet;
#N canvas 1 58 450 300 lop 0;
#X obj 140 139 * 0.1;
#X obj 140 191 +;
#X obj 204 191 * 0.9;
#X obj 231 144 * -1;
#X obj 231 164 + 1;
#X obj 231 103 t f;
#X obj 204 168 f;
#X obj 140 103 t f b;
#X obj 140 65 inlet;
#X obj 140 220 outlet;
#X obj 231 64 inlet;
#X connect 0 0 1 0;
#X connect 1 0 6 1;
#X connect 1 0 9 0;
#X connect 2 0 1 1;
#X connect 3 0 4 0;
#X connect 4 0 2 1;
#X connect 5 0 3 0;
#X connect 5 0 0 1;
#X connect 6 0 2 0;
#X connect 7 0 0 0;
#X connect 7 1 6 0;
#X connect 8 0 7 0;
#X connect 10 0 5 0;
#X restore 134 127 pd lop;
#N canvas 1 58 450 300 lop 0;
#X obj 140 139 * 0.1;
#X obj 140 191 +;
#X obj 204 191 * 0.9;
#X obj 231 144 * -1;
#X obj 231 164 + 1;
#X obj 231 103 t f;
#X obj 204 168 f;
#X obj 140 103 t f b;
#X obj 140 65 inlet;
#X obj 140 220 outlet;
#X obj 231 64 inlet;
#X connect 0 0 1 0;
#X connect 1 0 6 1;
#X connect 1 0 9 0;
#X connect 2 0 1 1;
#X connect 3 0 4 0;
#X connect 4 0 2 1;
#X connect 5 0 3 0;
#X connect 5 0 0 1;
#X connect 6 0 2 0;
#X connect 7 0 0 0;
#X connect 7 1 6 0;
#X connect 8 0 7 0;
#X connect 10 0 5 0;
#X restore 181 127 pd lop;
#N canvas 1 58 450 300 lop 0;
#X obj 140 139 * 0.1;
#X obj 140 191 +;
#X obj 204 191 * 0.9;
#X obj 231 144 * -1;
#X obj 231 164 + 1;
#X obj 231 103 t f;
#X obj 204 168 f;
#X obj 140 103 t f b;
#X obj 140 65 inlet;
#X obj 140 220 outlet;
#X obj 231 64 inlet;
#X connect 0 0 1 0;
#X connect 1 0 6 1;
#X connect 1 0 9 0;
#X connect 2 0 1 1;
#X connect 3 0 4 0;
#X connect 4 0 2 1;
#X connect 5 0 3 0;
#X connect 5 0 0 1;
#X connect 6 0 2 0;
#X connect 7 0 0 0;
#X connect 7 1 6 0;
#X connect 8 0 7 0;
#X connect 10 0 5 0;
#X restore 228 127 pd lop;
#X connect 0 0 1 0;
#X connect 1 0 5 0;
#X connect 1 1 6 0;
#X connect 1 2 7 0;
#X connect 2 0 3 0;
#X connect 4 0 7 1;
#X connect 4 0 6 1;
#X connect 4 0 5 1;
#X connect 5 0 2 0;
#X connect 6 0 2 1;
#X connect 7 0 2 2;
#X restore 69 223 pd filter;
#X obj 88 276 timer;
#X obj 88 298 min 200;
#X obj 88 321 / 1000;
#X obj 69 251 t a b b;
#X floatatom 155 308 5 0 0 0 - - -, f 5;
#X obj 128 390 < 8;
#X obj 143 427 *;
#X obj 69 390 spigot 1;
#X obj 69 145 metro 100;
#X obj 200 197 hsl 128 15 0.001 1 1 0 empty empty empty -2 -8 0 10
-262144 -1 -1 5508 1;
#X obj 170 408 maxlib/scale 0 8 1 3;
#X obj 206 292 r \$1-COUNT;
#X obj 69 480 s \$1-GCODE;
#X obj 171 479 s \$1-GCODE;
#X obj 135 24 r SeqMsg;
#X obj 69 65 loadbang;
#N canvas 1 63 483 425 random 0;
#X obj 109 15 inlet;
#X obj 109 94 unpack f f f;
#X obj 109 327 +;
#X obj 109 349 pack f f f;
#X obj 143 327 +;
#X obj 178 326 +;
#X obj 109 37 t a b;
#X obj 238 77 t b b b;
#X obj 314 18 inlet amount;
#X obj 314 66 unpack f f f;
#X obj 211 116 random 2;
#X obj 211 140 * 2;
#X obj 211 163 - 1;
#X obj 211 214 +;
#X obj 239 214 * 0.95;
#X obj 211 188 *;
#X msg 405 35 1 1 1;
#X obj 211 244 clip -10 10;
#X msg 404 78 0 0 0;
#X msg 404 8 2 2 2;
#X msg 405 58 0.1 0.1 0.1;
#X obj 290 117 random 2;
#X obj 290 141 * 2;
#X obj 290 164 - 1;
#X obj 290 215 +;
#X obj 318 215 * 0.95;
#X obj 290 189 *;
#X obj 290 245 clip -10 10;
#X obj 366 117 random 2;
#X obj 366 141 * 2;
#X obj 366 164 - 1;
#X obj 366 215 +;
#X obj 394 215 * 0.95;
#X obj 366 189 *;
#X obj 366 241 clip -10 10;
#X obj 109 375 outlet;
#X connect 0 0 6 0;
#X connect 1 0 2 0;
#X connect 1 1 4 0;
#X connect 1 2 5 0;
#X connect 2 0 3 0;
#X connect 3 0 35 0;
#X connect 4 0 3 1;
#X connect 5 0 3 2;
#X connect 6 0 1 0;
#X connect 6 1 7 0;
#X connect 7 0 10 0;
#X connect 7 1 21 0;
#X connect 7 2 28 0;
#X connect 8 0 9 0;
#X connect 9 0 15 1;
#X connect 9 1 26 1;
#X connect 9 2 33 1;
#X connect 10 0 11 0;
#X connect 11 0 12 0;
#X connect 12 0 15 0;
#X connect 13 0 17 0;
#X connect 14 0 13 1;
#X connect 15 0 13 0;
#X connect 16 0 9 0;
#X connect 17 0 14 0;
#X connect 17 0 2 1;
#X connect 18 0 9 0;
#X connect 19 0 9 0;
#X connect 20 0 9 0;
#X connect 21 0 22 0;
#X connect 22 0 23 0;
#X connect 23 0 26 0;
#X connect 24 0 27 0;
#X connect 25 0 24 1;
#X connect 26 0 24 0;
#X connect 27 0 25 0;
#X connect 27 0 4 1;
#X connect 28 0 29 0;
#X connect 29 0 30 0;
#X connect 30 0 33 0;
#X connect 31 0 34 0;
#X connect 32 0 31 1;
#X connect 33 0 31 0;
#X connect 34 0 32 0;
#X connect 34 0 5 1;
#X restore 69 198 pd random;
#X obj 135 46 route reset;
#X msg 126 68 0 0 0;
#X obj 150 94 bng 15 250 50 0 empty empty empty 17 7 0 10 -262144 -1
-1;
#X obj 198 72 route pos\$1 rnd\$1 speed\$1;
#X obj 432 70 route tilt\$1 focus\$1;
#N canvas 462 69 456 402 line3 0;
#X obj 129 126 pack f f f 0;
#X obj 129 153 unpack f f f f;
#X obj 129 83 t a b;
#X msg 198 103 0;
#X obj 129 44 inlet;
#X obj 129 209 line;
#X obj 129 186 pack f 0;
#X obj 129 237 t b f;
#X obj 129 276 del 1;
#X obj 129 298 f;
#X obj 129 323 pack f f f;
#X obj 186 235 t b f;
#X obj 243 238 t b f;
#X obj 186 210 line;
#X obj 186 187 pack f 0;
#X obj 243 210 line;
#X obj 243 187 pack f 0;
#X obj 129 348 outlet;
#X connect 0 0 1 0;
#X connect 1 0 6 0;
#X connect 1 1 14 0;
#X connect 1 2 16 0;
#X connect 1 3 6 1;
#X connect 1 3 14 1;
#X connect 1 3 16 1;
#X connect 2 0 0 0;
#X connect 2 1 3 0;
#X connect 3 0 0 3;
#X connect 4 0 2 0;
#X connect 5 0 7 0;
#X connect 6 0 5 0;
#X connect 7 0 8 0;
#X connect 7 1 9 1;
#X connect 8 0 9 0;
#X connect 9 0 10 0;
#X connect 10 0 17 0;
#X connect 11 0 8 0;
#X connect 11 1 10 1;
#X connect 12 0 8 0;
#X connect 12 1 10 2;
#X connect 13 0 11 0;
#X connect 14 0 13 0;
#X connect 15 0 12 0;
#X connect 16 0 15 0;
#X restore 135 144 pd line3;
#N canvas 458 81 499 485 line 0;
#X obj 129 83 t a b;
#X msg 182 85 0;
#X obj 129 44 inlet;
#X obj 129 250 line;
#X obj 129 227 pack f 0;
#X obj 129 280 outlet;
#X obj 129 126 pack f f;
#X obj 129 153 unpack f f;
#X obj 182 205 * 1000;
#X obj 182 182 min 1;
#X connect 0 0 6 0;
#X connect 0 1 1 0;
#X connect 1 0 6 1;
#X connect 2 0 0 0;
#X connect 3 0 5 0;
#X connect 4 0 3 0;
#X connect 6 0 7 0;
#X connect 7 0 4 0;
#X connect 7 1 9 0;
#X connect 8 0 4 1;
#X connect 9 0 8 0;
#X restore 416 137 pd line;
#X obj 416 166 clip -110 110;
#X obj 416 225 + 1000;
#X msg 416 262 M280 1 \$1;
#N canvas 458 81 499 485 line 0;
#X obj 129 83 t a b;
#X msg 182 85 0;
#X obj 129 44 inlet;
#X obj 129 250 line;
#X obj 129 227 pack f 0;
#X obj 129 280 outlet;
#X obj 129 126 pack f f;
#X obj 129 153 unpack f f;
#X obj 182 205 * 1000;
#X obj 182 182 min 1;
#X connect 0 0 6 0;
#X connect 0 1 1 0;
#X connect 1 0 6 1;
#X connect 2 0 0 0;
#X connect 3 0 5 0;
#X connect 4 0 3 0;
#X connect 6 0 7 0;
#X connect 7 0 4 0;
#X connect 7 1 9 0;
#X connect 8 0 4 1;
#X connect 9 0 8 0;
#X restore 525 138 pd line;
#X obj 525 226 + 1000;
#X obj 525 167 clip 0 100;
#X obj 416 197 * 5;
#X msg 525 266 M280 2 \$1;
#X obj 525 198 * 5;
#X obj 472 325 s \$1-GCODE;
#X connect 1 0 23 0;
#X connect 2 0 24 0;
#X connect 3 0 1 0;
#X connect 3 1 17 0;
#X connect 4 0 5 1;
#X connect 5 0 27 0;
#X connect 6 0 19 0;
#X connect 7 0 4 0;
#X connect 8 0 4 0;
#X connect 8 1 4 1;
#X connect 9 0 18 0;
#X connect 10 0 14 0;
#X connect 11 0 12 0;
#X connect 12 0 13 0;
#X connect 13 0 9 1;
#X connect 13 0 15 0;
#X connect 14 0 9 0;
#X connect 14 1 11 0;
#X connect 14 2 11 1;
#X connect 16 0 18 1;
#X connect 17 0 2 0;
#X connect 18 0 3 0;
#X connect 19 0 5 0;
#X connect 20 0 10 1;
#X connect 21 0 17 1;
#X connect 22 0 0 0;
#X connect 22 0 16 0;
#X connect 22 0 21 0;
#X connect 25 0 28 0;
#X connect 26 0 6 0;
#X connect 27 0 10 0;
#X connect 28 0 29 0;
#X connect 28 0 30 0;
#X connect 28 1 31 0;
#X connect 29 0 27 1;
#X connect 31 0 33 0;
#X connect 31 1 27 1;
#X connect 31 2 20 0;
#X connect 31 3 32 0;
#X connect 32 0 34 0;
#X connect 32 1 38 0;
#X connect 33 0 5 1;
#X connect 34 0 35 0;
#X connect 35 0 41 0;
#X connect 36 0 37 0;
#X connect 37 0 44 0;
#X connect 38 0 40 0;
#X connect 39 0 42 0;
#X connect 40 0 43 0;
#X connect 41 0 36 0;
#X connect 42 0 44 0;
#X connect 43 0 39 0;
#X restore 443 48 pd SEQCTL;
#X obj 190 204 f \$2;
#X msg 190 227 open \$1;
#X obj 203 518 sel 1;
#X msg 203 567 10;
#X msg 203 587 M204 P\$1 T\$1 \, M201 X\$1 Y\$1;
#X msg 232 566 1000;
#X obj 203 544 del 3000;
#X obj 203 496 r \$1-driver_connected;
#X obj 203 608 s \$1-GCODE;
#X text 277 565 accel;
#X connect 0 0 2 0;
#X connect 1 0 38 0;
#X connect 2 0 1 0;
#X connect 2 0 25 0;
#X connect 2 1 81 0;
#X connect 3 0 4 0;
#X connect 4 0 38 0;
#X connect 5 0 3 0;
#X connect 6 0 3 0;
#X connect 7 0 8 0;
#X connect 8 0 48 0;
#X connect 12 0 13 0;
#X connect 13 0 37 0;
#X connect 14 0 17 0;
#X connect 15 0 38 0;
#X connect 16 0 18 0;
#X connect 17 0 16 0;
#X connect 18 0 38 0;
#X connect 19 0 37 1;
#X connect 20 0 21 0;
#X connect 20 0 23 0;
#X connect 20 1 26 0;
#X connect 21 0 24 0;
#X connect 22 0 24 0;
#X connect 23 0 26 0;
#X connect 24 0 12 0;
#X connect 25 0 12 0;
#X connect 26 0 22 0;
#X connect 26 0 27 0;
#X connect 28 0 9 0;
#X connect 28 0 47 0;
#X connect 28 1 10 0;
#X connect 28 1 46 0;
#X connect 28 2 11 0;
#X connect 28 2 44 0;
#X connect 28 3 29 0;
#X connect 28 3 45 0;
#X connect 28 4 51 0;
#X connect 28 4 50 0;
#X connect 30 0 35 0;
#X connect 30 1 36 0;
#X connect 32 0 33 0;
#X connect 33 0 42 0;
#X connect 35 0 42 0;
#X connect 36 0 42 0;
#X connect 37 0 15 0;
#X connect 38 0 28 0;
#X connect 38 1 7 0;
#X connect 39 0 0 0;
#X connect 41 0 30 0;
#X connect 43 0 14 0;
#X connect 48 0 40 0;
#X connect 53 0 69 0;
#X connect 54 0 69 0;
#X connect 55 0 70 0;
#X connect 56 0 70 0;
#X connect 57 0 52 0;
#X connect 59 0 62 0;
#X connect 60 0 62 0;
#X connect 61 0 62 0;
#X connect 62 0 65 0;
#X connect 63 0 62 0;
#X connect 65 0 58 0;
#X connect 66 0 68 0;
#X connect 67 0 68 0;
#X connect 68 0 52 0;
#X connect 69 0 52 0;
#X connect 70 0 52 0;
#X connect 71 0 52 0;
#X connect 74 0 52 0;
#X connect 75 0 52 0;
#X connect 76 0 52 0;
#X connect 77 0 78 0;
#X connect 79 0 20 0;
#X connect 79 0 14 1;
#X connect 81 0 82 0;
#X connect 82 0 38 0;
#X connect 83 0 87 0;
#X connect 84 0 85 0;
#X connect 85 0 89 0;
#X connect 86 0 85 0;
#X connect 87 0 84 0;
#X connect 88 0 83 0;
#X coords 0 -1 1 1 85 60 1 50 15;
